<?xml version="1.0" encoding="UTF-8" standalone="no"?>
<!-- Created with Inkscape (http://www.inkscape.org/) -->

<svg
   width="128"
   height="128"
   viewBox="0 0 33.866666 33.866666"
   version="1.1"
   id="svg5"
   inkscape:version="1.2.1 (9c6d41e410, 2022-07-14)"
   sodipodi:docname="radiant.svg"
   xml:space="preserve"
   inkscape:export-filename="radiant.png"
   inkscape:export-xdpi="768"
   inkscape:export-ydpi="768"
   xmlns:inkscape="http://www.inkscape.org/namespaces/inkscape"
   xmlns:sodipodi="http://sodipodi.sourceforge.net/DTD/sodipodi-0.dtd"
   xmlns="http://www.w3.org/2000/svg"
   xmlns:svg="http://www.w3.org/2000/svg"><sodipodi:namedview
     id="namedview7"
     pagecolor="#ffffff"
     bordercolor="#000000"
     borderopacity="0.25"
     inkscape:showpageshadow="2"
     inkscape:pageopacity="0.0"
     inkscape:pagecheckerboard="0"
     inkscape:deskcolor="#d1d1d1"
     inkscape:document-units="mm"
     showgrid="true"
     inkscape:zoom="2.8988957"
     inkscape:cx="22.76729"
     inkscape:cy="77.960722"
     inkscape:window-width="1366"
     inkscape:window-height="697"
     inkscape:window-x="-8"
     inkscape:window-y="-8"
     inkscape:window-maximized="1"
     inkscape:current-layer="layer1"><inkscape:grid
       type="xygrid"
       id="grid16"
       spacingx="0.52916666"
       empcolor="#ac00e5"
       empopacity="0.30196078"
       empspacing="8"
       color="#0099e5"
       opacity="0.82745098"
       spacingy="0.52916666"
       originx="7.3436626e-18"
       dotted="true" /></sodipodi:namedview><defs
     id="defs2" /><g
     inkscape:label="Layer 1"
     inkscape:groupmode="layer"
     id="layer1"><path
       style="fill:#ffffff;fill-opacity:1;stroke-width:0.264583"
       d="m 4.233333,8.4666663 2.1166669,-2.1166664 9.5249991,-2e-7 10e-7,3.175001 c 0,0 -3.175,0.5291663 -4.7625,3.1749993 -1.7218853,2.869809 -0.529167,5.291666 -0.529167,5.291666 L 8.4666666,19.049999 4.2333333,11.641666 Z"
       id="path247"
       sodipodi:nodetypes="ccccscccc" /><path
       style="fill:#ffffff;fill-opacity:1;stroke-width:0.264583"
       d="M 17.991666,9.5250007 V 6.3499999 h 9.525 l 2.116668,2.1166667 V 11.641666 L 25.4,19.05 23.283333,17.991666 c 0,0 1.058333,-2.645833 -0.529167,-5.291666 -1.5875,-2.645833 -4.7625,-3.1749993 -4.7625,-3.1749993 z"
       id="path1135"
       sodipodi:nodetypes="cccccccsc" /><path
       style="fill:#ffffff;fill-opacity:1;stroke-width:0.264583"
       d="m 11.641667,19.579166 c 0,0 1.549893,2.645834 5.291666,2.645834 3.741773,0 5.291667,-2.645834 5.291667,-2.645834 l 2.116666,1.058333 -4.233333,7.408334 -3.175,1.5875 -3.175,-1.5875 -4.2333331,-7.408334 z"
       id="path1137"
       sodipodi:nodetypes="csccccccc" /></g></svg>
